<svg width="89" height="88" viewBox="0 0 89 88" fill="none" xmlns="http://www.w3.org/2000/svg">
<g filter="url(#filter0_d_3194_446)">
<path d="M42.5845 28.6094C43.1488 28.2113 43.8229 27.9983 44.5136 28C45.2043 28.0017 45.8774 28.2181 46.4396 28.619C47.0096 29.035 47.4418 29.611 47.6788 30.2766L49.11 34.67C49.4773 35.7712 50.0957 36.772 50.9165 37.5933C51.7372 38.4147 52.7378 39.0341 53.8392 39.4026L58.2931 40.8426C58.9516 41.0808 59.5187 41.5196 59.9144 42.0969C60.3102 42.6743 60.5147 43.3613 60.4992 44.061C60.4836 44.7607 60.2488 45.4379 59.8277 45.9971C59.4067 46.5564 58.8206 46.9695 58.1522 47.1783L53.7496 48.6119C52.6471 48.9785 51.645 49.5963 50.8226 50.4166C50.0001 51.2369 49.3798 52.237 49.0108 53.3381L47.5635 57.7795C47.3305 58.4339 46.8991 58.9993 46.3295 59.3973C45.7599 59.7952 45.0804 60.0059 44.3854 59.9999C43.6905 59.9939 43.0147 59.7716 42.452 59.3639C41.8894 58.9562 41.4679 58.3834 41.2461 57.7251L39.7829 53.2453C39.4155 52.1738 38.8098 51.1995 38.0111 50.3958C37.2125 49.5921 36.2418 48.98 35.1721 48.6055L30.7215 47.1751C30.067 46.9417 29.5015 46.5105 29.1034 45.9413C28.7053 45.372 28.4945 44.6931 28.5001 43.9986C28.5057 43.3042 28.7276 42.6287 29.1348 42.066C29.5421 41.5033 30.1145 41.0813 30.7727 40.8586L35.1721 39.4346C36.2802 39.0671 37.2865 38.4449 38.1102 37.6179C38.9338 36.7909 39.5517 35.7823 39.9142 34.6732L41.3614 30.2222C41.5919 29.5694 42.021 29.0062 42.5845 28.6094Z" fill="#9547A5"/>
</g>
<defs>
<filter id="filter0_d_3194_446" x="0.5" y="0" width="88" height="88" filterUnits="userSpaceOnUse" color-interpolation-filters="sRGB">
<feFlood flood-opacity="0" result="BackgroundImageFix"/>
<feColorMatrix in="SourceAlpha" type="matrix" values="0 0 0 0 0 0 0 0 0 0 0 0 0 0 0 0 0 0 127 0" result="hardAlpha"/>
<feOffset/>
<feGaussianBlur stdDeviation="14"/>
<feComposite in2="hardAlpha" operator="out"/>
<feColorMatrix type="matrix" values="0 0 0 0 0.560784 0 0 0 0 0.231373 0 0 0 0 0.619608 0 0 0 0.5 0"/>
<feBlend mode="normal" in2="BackgroundImageFix" result="effect1_dropShadow_3194_446"/>
<feBlend mode="normal" in="SourceGraphic" in2="effect1_dropShadow_3194_446" result="shape"/>
</filter>
</defs>
</svg>
